<svg width="16" height="9" fill="none" xmlns="http://www.w3.org/2000/svg"><path fill-rule="evenodd" clip-rule="evenodd" d="M15.304 7.02c-.348-.407-.744-.772-1.127-1.125a29.306 29.306 0 0 1-.412-.384c-.39-.37-.404-.51-.096-.93.214-.29.44-.581.659-.862.198-.255.404-.519.6-.783l.04-.055c.377-.506.765-1.03.972-1.661.054-.167.11-.412-.019-.617-.128-.204-.379-.267-.556-.296A1.559 1.559 0 0 0 15.11.29h-2.48c-.373 0-.624.17-.768.521a14.05 14.05 0 0 1-.46 1.033c-.342.677-.777 1.456-1.406 2.106l-.026.028c-.075.077-.159.165-.22.165a.11.11 0 0 1-.032-.005c-.13-.05-.217-.356-.214-.5v-.005L9.503.862 9.5.835c-.063-.45-.202-.73-.726-.83A.22.22 0 0 0 8.732 0h-2.56c-.417 0-.647.165-.863.412-.058.066-.18.203-.12.37.062.17.26.205.324.217.32.06.501.25.552.583.09.578.1 1.196.035 1.943a1.595 1.595 0 0 1-.114.505c-.014.032-.064.136-.114.136-.016 0-.062-.006-.146-.062-.198-.132-.344-.321-.513-.555A12.961 12.961 0 0 1 3.734.88C3.58.51 3.29.304 2.917.298a76.006 76.006 0 0 0-1.132-.01c-.386 0-.744.004-1.093.01-.3.006-.506.093-.615.26-.11.168-.102.387.02.653.986 2.131 1.88 3.68 2.897 5.024.713.94 1.428 1.591 2.25 2.048.867.483 1.838.717 2.97.717.127 0 .26-.003.393-.009.658-.031.902-.263.932-.885.015-.318.05-.652.211-.937.102-.18.197-.18.228-.18.06 0 .134.028.213.078.144.09.266.212.367.319.095.1.188.203.282.305.202.22.41.448.63.664.477.473 1.004.681 1.608.636h2.272a.66.66 0 0 0 .534-.333c.143-.245.14-.556-.007-.834a4.47 4.47 0 0 0-.573-.804z" fill="#fff"/></svg>