<svg width="19" height="13" fill="none" xmlns="http://www.w3.org/2000/svg"><path fill-rule="evenodd" clip-rule="evenodd" d="M18.672 2.092A2.384 2.384 0 0 0 16.617.259C14.261 0 11.877-.001 9.503 0c-2.374 0-4.76 0-7.116.26C1.393.369.567 1.1.335 2.093.004 3.504 0 5.046 0 6.5c0 1.454 0 2.997.331 4.409a2.383 2.383 0 0 0 2.054 1.833c2.355.258 4.74.26 7.114.258 2.375.002 4.76 0 7.115-.258a2.385 2.385 0 0 0 2.054-1.833c.331-1.412.332-2.955.332-4.41 0-1.453.003-2.995-.328-4.407zM7.048 9.395V3.227c2.013 1.032 4.014 2.055 6.04 3.093l-6.04 3.075z" fill="#fff"/></svg>